<svg width="44" height="44" viewBox="0 0 44 44" fill="none" xmlns="http://www.w3.org/2000/svg">
<path d="M39.9587 37.0408L31.7964 28.875C34.2437 25.6858 35.3863 21.6851 34.9924 17.6845C34.5985 13.6838 32.6975 9.9828 29.6752 7.33218C26.6528 4.68156 22.7354 3.27982 18.7176 3.41131C14.6997 3.54281 10.8823 5.19769 8.03977 8.04025C5.1972 10.8828 3.54232 14.7002 3.41082 18.7181C3.27933 22.7359 4.68107 26.6533 7.33169 29.6757C9.98231 32.698 13.6833 34.599 17.684 34.9929C21.6846 35.3868 25.6853 34.2442 28.8745 31.7969L37.0437 39.9678C37.2356 40.1597 37.4634 40.3119 37.714 40.4157C37.9647 40.5195 38.2334 40.573 38.5047 40.573C38.776 40.573 39.0447 40.5195 39.2953 40.4157C39.546 40.3119 39.7738 40.1597 39.9656 39.9678C40.1575 39.776 40.3097 39.5482 40.4135 39.2975C40.5173 39.0469 40.5708 38.7782 40.5708 38.5069C40.5708 38.2356 40.5173 37.9669 40.4135 37.7162C40.3097 37.4656 40.1575 37.2378 39.9656 37.0459L39.9587 37.0408ZM7.56202 19.25C7.56202 16.9384 8.24748 14.6788 9.53172 12.7568C10.816 10.8348 12.6413 9.33677 14.7769 8.45217C16.9125 7.56757 19.2625 7.33612 21.5296 7.78708C23.7968 8.23805 25.8793 9.35117 27.5138 10.9857C29.1484 12.6202 30.2615 14.7027 30.7125 16.9699C31.1634 19.237 30.932 21.587 30.0474 23.7226C29.1628 25.8582 27.6647 27.6836 25.7428 28.9678C23.8207 30.252 21.5611 30.9375 19.2495 30.9375C16.1508 30.9343 13.1799 29.7019 10.9887 27.5108C8.79759 25.3197 7.56521 22.3487 7.56202 19.25Z" fill="white"/>
</svg>
