<svg width="42" height="42" viewBox="0 0 42 42" fill="none" xmlns="http://www.w3.org/2000/svg">
<path d="M36.75 26.2502C37.2721 26.2502 37.7729 26.0427 38.1421 25.6735C38.5113 25.3043 38.7188 24.8036 38.7188 24.2814C38.7188 23.7593 38.5113 23.2585 38.1421 22.8893C37.7729 22.5201 37.2721 22.3127 36.75 22.3127H34.7812V19.6877H36.75C37.2721 19.6877 37.7729 19.4803 38.1421 19.111C38.5113 18.7418 38.7188 18.2411 38.7188 17.7189C38.7188 17.1968 38.5113 16.696 38.1421 16.3268C37.7729 15.9576 37.2721 15.7502 36.75 15.7502H34.527C34.0706 13.4015 33.0085 11.2128 31.4459 9.40095L34.2054 6.64306C34.5752 6.27321 34.783 5.77158 34.783 5.24853C34.783 4.72548 34.5752 4.22385 34.2054 3.854C33.8355 3.48415 33.3339 3.27637 32.8109 3.27637C32.2878 3.27637 31.7862 3.48415 31.4163 3.854L28.4632 6.80713C26.238 5.36372 23.6425 4.59561 20.9902 4.59561C18.3378 4.59561 15.7423 5.36372 13.5171 6.80713L10.564 3.854C10.3809 3.67087 10.1634 3.5256 9.92417 3.42649C9.68489 3.32738 9.42844 3.27637 9.16945 3.27637C8.6464 3.27637 8.14477 3.48415 7.77492 3.854C7.40507 4.22385 7.19729 4.72548 7.19729 5.24853C7.19729 5.77158 7.40507 6.27321 7.77492 6.64306L10.5541 9.40095C8.99152 11.2128 7.92941 13.4015 7.47305 15.7502H5.25C4.72786 15.7502 4.2271 15.9576 3.85788 16.3268C3.48867 16.696 3.28125 17.1968 3.28125 17.7189C3.28125 18.2411 3.48867 18.7418 3.85788 19.111C4.2271 19.4803 4.72786 19.6877 5.25 19.6877H7.21875V22.3127H5.25C4.72786 22.3127 4.2271 22.5201 3.85788 22.8893C3.48867 23.2585 3.28125 23.7593 3.28125 24.2814C3.28125 24.8036 3.48867 25.3043 3.85788 25.6735C4.2271 26.0427 4.72786 26.2502 5.25 26.2502H7.21875C7.21895 27.1313 7.30411 28.0104 7.47305 28.8752H5.25C4.72786 28.8752 4.2271 29.0826 3.85788 29.4518C3.48867 29.821 3.28125 30.3218 3.28125 30.8439C3.28125 31.3661 3.48867 31.8668 3.85788 32.236C4.2271 32.6052 4.72786 32.8127 5.25 32.8127H8.88398C10.0667 34.9948 11.8168 36.817 13.9494 38.0868C16.082 39.3566 18.518 40.027 21 40.027C23.482 40.027 25.918 39.3566 28.0506 38.0868C30.1832 36.817 31.9333 34.9948 33.116 32.8127H36.75C37.2721 32.8127 37.7729 32.6052 38.1421 32.236C38.5113 31.8668 38.7188 31.3661 38.7188 30.8439C38.7188 30.3218 38.5113 29.821 38.1421 29.4518C37.7729 29.0826 37.2721 28.8752 36.75 28.8752H34.527C34.6959 28.0104 34.7811 27.1313 34.7812 26.2502H36.75ZM21 8.53142C23.1524 8.53441 25.2446 9.24158 26.9574 10.545C28.6702 11.8484 29.9095 13.6765 30.4861 15.7502H11.5139C12.0905 13.6765 13.3298 11.8484 15.0426 10.545C16.7554 9.24158 18.8476 8.53441 21 8.53142ZM22.9688 35.8954V24.2814C22.9688 23.7593 22.7613 23.2585 22.3921 22.8893C22.0229 22.5201 21.5221 22.3127 21 22.3127C20.4779 22.3127 19.9771 22.5201 19.6079 22.8893C19.2387 23.2585 19.0312 23.7593 19.0312 24.2814V35.8954C16.8094 35.439 14.8128 34.2304 13.3783 32.4734C11.9437 30.7164 11.1589 28.5184 11.1562 26.2502V19.6877H30.8438V26.2502C30.8411 28.5184 30.0563 30.7164 28.6217 32.4734C27.1872 34.2304 25.1906 35.439 22.9688 35.8954Z" fill="white"/>
</svg>
