<svg width="22" height="23" viewBox="0 0 22 23" fill="none" xmlns="http://www.w3.org/2000/svg">
<path d="M11 0C8.82441 0 6.69767 0.659885 4.88873 1.89621C3.07979 3.13253 1.66989 4.88976 0.83733 6.94569C0.00476613 9.00162 -0.213071 11.2639 0.211367 13.4465C0.635804 15.629 1.68345 17.6338 3.22183 19.2074C4.76021 20.7809 6.72022 21.8525 8.85401 22.2867C10.9878 22.7208 13.1995 22.498 15.2095 21.6464C17.2195 20.7948 18.9375 19.3527 20.1462 17.5024C21.3549 15.6521 22 13.4767 22 11.2514C21.9969 8.26833 20.837 5.40831 18.7748 3.29895C16.7125 1.18958 13.9164 0.0031502 11 0ZM14.1371 11.8638L9.90635 16.1912C9.82773 16.2716 9.7344 16.3354 9.63168 16.379C9.52897 16.4225 9.41888 16.4449 9.3077 16.4449C9.19652 16.4449 9.08642 16.4225 8.98371 16.379C8.88099 16.3354 8.78766 16.2716 8.70904 16.1912C8.63042 16.1108 8.56806 16.0154 8.52552 15.9103C8.48297 15.8052 8.46107 15.6926 8.46107 15.5789C8.46107 15.4652 8.48297 15.3526 8.52552 15.2475C8.56806 15.1424 8.63042 15.047 8.70904 14.9666L12.3422 11.2514L8.70904 7.53629C8.55027 7.37389 8.46107 7.15363 8.46107 6.92395C8.46107 6.69428 8.55027 6.47402 8.70904 6.31162C8.86781 6.14921 9.08316 6.05798 9.3077 6.05798C9.53223 6.05798 9.74758 6.14921 9.90635 6.31162L14.1371 10.6391C14.2158 10.7195 14.2782 10.8149 14.3208 10.92C14.3634 11.0251 14.3853 11.1377 14.3853 11.2514C14.3853 11.3652 14.3634 11.4778 14.3208 11.5829C14.2782 11.6879 14.2158 11.7834 14.1371 11.8638Z" fill="#4B0082"/>
</svg>
